<svg width="411" height="411" viewBox="0 0 411 411" fill="none" xmlns="http://www.w3.org/2000/svg">
<path d="M205.5 410C318.442 410 410 318.442 410 205.5C410 92.5578 318.442 1 205.5 1C92.5578 1 1 92.5578 1 205.5C1 318.442 92.5578 410 205.5 410Z" stroke="#D03B00" stroke-width="0.916667" stroke-miterlimit="10"/>
<path d="M205.5 369.099C318.442 369.099 410 295.853 410 205.499C410 115.145 318.442 41.8992 205.5 41.8992C92.5578 41.8992 1 115.145 1 205.499C1 295.853 92.5578 369.099 205.5 369.099Z" stroke="#D03B00" stroke-width="0.916667" stroke-miterlimit="10"/>
<path d="M205.5 328.2C318.442 328.2 410 273.265 410 205.5C410 137.734 318.442 82.7997 205.5 82.7997C92.5578 82.7997 1 137.734 1 205.5C1 273.265 92.5578 328.2 205.5 328.2Z" stroke="#D03B00" stroke-width="0.916667" stroke-miterlimit="10"/>
<path d="M205.5 287.3C318.442 287.3 410 250.677 410 205.5C410 160.323 318.442 123.7 205.5 123.7C92.5578 123.7 1 160.323 1 205.5C1 250.677 92.5578 287.3 205.5 287.3Z" stroke="#D03B00" stroke-width="0.916667" stroke-miterlimit="10"/>
<path d="M205.5 246.401C318.442 246.401 410 228.089 410 205.501C410 182.912 318.442 164.601 205.5 164.601C92.5578 164.601 1 182.912 1 205.501C1 228.089 92.5578 246.401 205.5 246.401Z" stroke="#D03B00" stroke-width="0.916667" stroke-miterlimit="10"/>
<path d="M1 205.5H410" stroke="#D03B00" stroke-width="0.916667" stroke-miterlimit="10"/>
<path d="M205.5 410C318.442 410 410 318.442 410 205.5C410 92.5578 318.442 1 205.5 1C92.5578 1 1 92.5578 1 205.5C1 318.442 92.5578 410 205.5 410Z" stroke="#D03B00" stroke-width="0.916667" stroke-miterlimit="10"/>
<path d="M205.499 410C295.853 410 369.099 318.442 369.099 205.5C369.099 92.5578 295.853 1 205.499 1C115.145 1 41.8992 92.5578 41.8992 205.5C41.8992 318.442 115.145 410 205.499 410Z" stroke="#D03B00" stroke-width="0.916667" stroke-miterlimit="10"/>
<path d="M205.5 410C273.265 410 328.2 318.442 328.2 205.5C328.2 92.5578 273.265 1 205.5 1C137.734 1 82.7997 92.5578 82.7997 205.5C82.7997 318.442 137.734 410 205.5 410Z" stroke="#D03B00" stroke-width="0.916667" stroke-miterlimit="10"/>
<path d="M205.5 410C250.677 410 287.3 318.442 287.3 205.5C287.3 92.5578 250.677 1 205.5 1C160.323 1 123.7 92.5578 123.7 205.5C123.7 318.442 160.323 410 205.5 410Z" stroke="#D03B00" stroke-width="0.916667" stroke-miterlimit="10"/>
<path d="M205.501 410C228.089 410 246.401 318.442 246.401 205.5C246.401 92.5578 228.089 1 205.501 1C182.912 1 164.601 92.5578 164.601 205.5C164.601 318.442 182.912 410 205.501 410Z" stroke="#D03B00" stroke-width="0.916667" stroke-miterlimit="10"/>
<path d="M205.5 410V1" stroke="#D03B00" stroke-width="0.916667" stroke-miterlimit="10"/>
<path d="M205.5 410C318.442 410 410 318.442 410 205.5C410 92.5578 318.442 1 205.5 1C92.5578 1 1 92.5578 1 205.5C1 318.442 92.5578 410 205.5 410Z" stroke="#D03B00" stroke-width="0.916667" stroke-miterlimit="10"/>
<path d="M205.499 410C295.853 410 369.099 318.442 369.099 205.5C369.099 92.5578 295.853 1 205.499 1C115.145 1 41.8992 92.5578 41.8992 205.5C41.8992 318.442 115.145 410 205.499 410Z" stroke="#D03B00" stroke-width="0.916667" stroke-miterlimit="10"/>
<path d="M205.5 410C273.265 410 328.2 318.442 328.2 205.5C328.2 92.5578 273.265 1 205.5 1C137.734 1 82.7997 92.5578 82.7997 205.5C82.7997 318.442 137.734 410 205.5 410Z" stroke="#D03B00" stroke-width="0.916667" stroke-miterlimit="10"/>
<path d="M205.5 410C250.677 410 287.3 318.442 287.3 205.5C287.3 92.5578 250.677 1 205.5 1C160.323 1 123.7 92.5578 123.7 205.5C123.7 318.442 160.323 410 205.5 410Z" stroke="#D03B00" stroke-width="0.916667" stroke-miterlimit="10"/>
<path d="M205.501 410C228.089 410 246.401 318.442 246.401 205.5C246.401 92.5578 228.089 1 205.501 1C182.912 1 164.601 92.5578 164.601 205.5C164.601 318.442 182.912 410 205.501 410Z" stroke="#D03B00" stroke-width="0.916667" stroke-miterlimit="10"/>
<path d="M205.5 410V1" stroke="#D03B00" stroke-width="0.916667" stroke-miterlimit="10"/>
</svg>
