<svg width="616" height="983" viewBox="0 0 616 983" fill="none" xmlns="http://www.w3.org/2000/svg">
<path d="M491.5 0L496.056 477.477L780.396 93.8681L503.429 482.833L958.944 339.618L506.245 491.5L958.944 643.382L503.429 500.167L780.396 889.132L496.056 505.523L491.5 983L486.944 505.523L202.604 889.132L479.571 500.167L24.0557 643.382L476.755 491.5L24.0557 339.618L479.571 482.833L202.604 93.8681L486.944 477.477L491.5 0Z" fill="#D03B00"/>
<path d="M491.5 160.959L493.568 478.441L593.643 177.137L497.503 479.719L685.787 224.087L500.849 482.151L758.913 297.213L503.281 485.497L805.863 389.357L504.559 489.432L822.041 491.5L504.559 493.568L805.863 593.643L503.281 497.503L758.913 685.787L500.849 500.849L685.787 758.913L497.503 503.281L593.643 805.863L493.568 504.559L491.5 822.041L489.432 504.559L389.357 805.863L485.498 503.281L297.213 758.913L482.151 500.849L224.087 685.787L479.719 497.503L177.137 593.643L478.441 493.568L160.959 491.5L478.441 489.432L177.137 389.357L479.719 485.497L224.087 297.213L482.151 482.151L297.213 224.087L485.498 479.719L389.357 177.137L489.432 478.441L491.5 160.959Z" fill="#D03B00"/>
</svg>
