<svg width="876" height="876" viewBox="0 0 876 876" fill="none" xmlns="http://www.w3.org/2000/svg">
<path d="M438 0L442.06 425.503L695.45 83.6505L448.63 430.276L854.563 302.651L451.14 438L854.563 573.349L448.63 445.724L695.45 792.349L442.06 450.497L438 876L433.94 450.497L180.55 792.349L427.37 445.724L21.4373 573.349L424.86 438L21.4373 302.651L427.37 430.276L180.55 83.6505L433.94 425.503L438 0Z" fill="#D03B00"/>
<path d="M438 143.439L439.843 426.363L529.024 157.855L443.349 427.502L611.139 199.695L446.331 429.669L676.305 264.861L448.498 432.651L718.145 346.976L449.637 436.157L732.561 438L449.637 439.843L718.145 529.024L448.498 443.349L676.305 611.139L446.331 446.331L611.139 676.305L443.349 448.498L529.024 718.145L439.843 449.637L438 732.561L436.157 449.637L346.976 718.145L432.651 448.498L264.861 676.305L429.669 446.331L199.695 611.139L427.502 443.349L157.855 529.024L426.363 439.843L143.439 438L426.363 436.157L157.855 346.976L427.502 432.651L199.695 264.861L429.669 429.669L264.861 199.695L432.651 427.502L346.976 157.855L436.157 426.363L438 143.439Z" fill="#D03B00"/>
</svg>
